<svg width="15" height="9" viewBox="0 0 15 9" fill="none" xmlns="http://www.w3.org/2000/svg">
<path d="M7.96729 8.78745L14.8217 1.15003C14.9362 1.0226 15 0.853293 15 0.677233C15 0.501173 14.9362 0.331869 14.8217 0.204435L14.814 0.196212C14.7585 0.13422 14.6917 0.0848579 14.6177 0.0511265C14.5437 0.017395 14.464 0 14.3835 0C14.303 0 14.2233 0.017395 14.1492 0.0511265C14.0752 0.0848579 14.0085 0.13422 13.953 0.196212L7.49871 7.38824L1.04701 0.196212C0.991537 0.13422 0.924766 0.0848579 0.850757 0.0511265C0.776748 0.017395 0.697049 0 0.616508 0C0.535968 0 0.456269 0.017395 0.38226 0.0511265C0.308252 0.0848579 0.241481 0.13422 0.186008 0.196212L0.178263 0.204435C0.0638351 0.331869 0 0.501173 0 0.677233C0 0.853293 0.0638351 1.0226 0.178263 1.15003L7.03271 8.78745C7.09299 8.85461 7.16549 8.90809 7.24581 8.94462C7.32614 8.98116 7.41261 9 7.5 9C7.58739 9 7.67386 8.98116 7.75419 8.94462C7.83451 8.90809 7.90701 8.85461 7.96729 8.78745Z" fill="#00FFCC"/>
</svg>
