<svg width="25" height="28" viewBox="0 0 25 28" fill="none" xmlns="http://www.w3.org/2000/svg">
<path fill-rule="evenodd" clip-rule="evenodd" d="M9.72223 17.3611C9.72223 16.6244 10.0149 15.9178 10.5358 15.3969C11.0568 14.876 11.7633 14.5833 12.5 14.5833C13.2367 14.5833 13.9433 14.876 14.4642 15.3969C14.9851 15.9178 15.2778 16.6244 15.2778 17.3611V18.75C15.2778 19.4867 14.9851 20.1932 14.4642 20.7142C13.9433 21.2351 13.2367 21.5278 12.5 21.5278C11.7633 21.5278 11.0568 21.2351 10.5358 20.7142C10.0149 20.1932 9.72223 19.4867 9.72223 18.75V17.3611ZM12.5 15.9722C12.1316 15.9722 11.7784 16.1185 11.5179 16.379C11.2574 16.6395 11.1111 16.9927 11.1111 17.3611V18.75C11.1111 19.1183 11.2574 19.4716 11.5179 19.7321C11.7784 19.9925 12.1316 20.1389 12.5 20.1389C12.8684 20.1389 13.2216 19.9925 13.4821 19.7321C13.7426 19.4716 13.8889 19.1183 13.8889 18.75V17.3611C13.8889 16.9927 13.7426 16.6395 13.4821 16.379C13.2216 16.1185 12.8684 15.9722 12.5 15.9722Z" fill="#00FFCC"/>
<path d="M17.8542 7.30348C16.6375 6.63125 15.5646 5.89375 15.0563 5.42153L14.1111 6.4375C14.7403 7.02292 15.9264 7.82431 17.1826 8.51875C18.4333 9.20972 19.8569 9.85278 20.9674 10.0576L21.2194 8.69236C20.3382 8.52917 19.0757 7.97847 17.8542 7.30348ZM10.2028 5.42084C9.69514 5.89306 8.62223 6.63125 7.40556 7.30278C6.18404 7.97847 4.92154 8.52917 4.04029 8.69167L4.29306 10.0576C5.40279 9.85278 6.8264 9.21042 8.07778 8.51875C9.33403 7.82431 10.5201 7.02292 11.1486 6.4375L10.2028 5.42084ZM11.2986 12.1278C11.3472 11.8264 11.2174 11.5431 11.0333 11.3187C10.8458 11.091 10.5715 10.8847 10.2403 10.716C9.57639 10.3778 8.63334 10.1632 7.52223 10.2417C6.38681 10.3215 5.57362 10.7667 5.09237 11.3312C4.6257 11.8778 4.44654 12.5826 4.71043 13.1201C4.73253 13.165 4.76409 13.2046 4.80294 13.2362C4.84178 13.2678 4.88699 13.2906 4.93547 13.3031C4.98395 13.3155 5.03455 13.3174 5.08381 13.3084C5.13307 13.2995 5.17981 13.2801 5.22084 13.2514C6.91737 12.0611 8.95001 11.8028 10.8514 12.4035C10.8989 12.4185 10.9491 12.4231 10.9986 12.4169C11.0481 12.4108 11.0956 12.3941 11.1381 12.3679C11.1805 12.3417 11.2168 12.3068 11.2445 12.2653C11.2722 12.2239 11.2907 12.177 11.2986 12.1278ZM13.7083 12.1681C13.6597 11.8743 13.7868 11.5993 13.9646 11.3833C14.1451 11.1639 14.409 10.9667 14.7257 10.8049C15.3618 10.4806 16.2646 10.275 17.3271 10.35C18.4132 10.4271 19.1931 10.8535 19.6556 11.3951C20.1028 11.9194 20.2778 12.5986 20.0222 13.1187C20.0001 13.1638 19.9685 13.2035 19.9296 13.2351C19.8907 13.2667 19.8455 13.2896 19.7969 13.3021C19.7483 13.3145 19.6976 13.3163 19.6483 13.3073C19.599 13.2984 19.5522 13.2788 19.5111 13.25C17.8972 12.1181 15.9639 11.8722 14.1549 12.4437C14.1073 12.4587 14.057 12.4633 14.0075 12.4571C13.958 12.4509 13.9104 12.4342 13.868 12.4079C13.8255 12.3817 13.7892 12.3467 13.7616 12.3051C13.7339 12.2636 13.7155 12.2166 13.7076 12.1674" fill="#00FFCC"/>
<path fill-rule="evenodd" clip-rule="evenodd" d="M3.50487 22.3666C2.91043 22.5125 2.39445 22.6764 1.98057 22.8597C1.66598 22.9986 1.37154 23.1666 1.14515 23.3736C0.920844 23.5798 0.694455 23.8916 0.694455 24.3055C0.694455 24.7194 0.920844 25.0312 1.14584 25.2375C1.37154 25.4444 1.66598 25.6125 1.98057 25.7514C2.61459 26.0326 3.4889 26.2687 4.51529 26.4611C6.57987 26.8486 9.40209 27.0833 12.5 27.0833C15.5979 27.0833 18.4201 26.8486 20.4847 26.4611C21.5111 26.2687 22.3854 26.0326 23.0194 25.7514C23.334 25.6125 23.6285 25.4444 23.8542 25.2375C24.0792 25.0312 24.3055 24.7194 24.3055 24.3055C24.3055 23.8916 24.0792 23.5798 23.8542 23.3736C23.6285 23.1666 23.334 22.9986 23.0194 22.8597C22.6104 22.6785 22.1014 22.516 21.5167 22.3715C21.5319 21.9548 21.5315 21.5504 21.5153 21.1583C23.7549 18.8328 25.0042 15.7286 25 12.5C25 5.59652 19.4035 0 12.5 0C5.59654 0 1.13528e-05 5.59652 1.13528e-05 12.5C-0.00433628 15.7225 1.24019 18.8214 3.47223 21.1458C3.46992 21.5412 3.4808 21.9481 3.50487 22.3666ZM12.5 23.6111C14.0882 23.6111 15.5986 23.2778 16.9653 22.6778C17.1979 21.3451 17.2056 20.2139 17.0347 19.1722C16.8306 17.9326 16.3681 16.7819 15.6736 15.5382C15.4 15.0486 15.2604 14.584 15.2799 14.1472C15.2933 13.7428 15.461 13.3589 15.7486 13.0743C15.9677 12.8631 16.2324 12.7051 16.5222 12.6125C16.7247 12.5429 16.9367 12.505 17.1507 12.5C17.9125 12.5 18.4479 12.8868 18.7903 13.2687C19.0715 13.5826 19.2639 13.9444 19.3528 14.1139L19.3875 14.1785C20.2972 15.8069 20.9826 17.4264 21.3111 19.2687C22.8058 17.3292 23.6147 14.9486 23.6111 12.5C23.6111 6.36319 18.6368 1.38889 12.5 1.38889C6.3632 1.38889 1.3889 6.36319 1.3889 12.5C1.38492 14.9054 2.16506 17.2465 3.61112 19.1687C3.86112 17.3805 4.45209 15.7819 5.42153 14.1611C5.43126 14.1449 5.44376 14.1224 5.45903 14.0937C5.65348 13.741 6.33612 12.5 7.76459 12.5C7.93334 12.5 8.16875 12.5333 8.40903 12.6083C8.65209 12.6833 8.95625 12.818 9.21459 13.0583C9.4882 13.3111 9.69861 13.6743 9.72014 14.1451C9.74098 14.5944 9.5875 15.066 9.29445 15.5555C8.56667 16.7729 8.16459 17.9055 8.03403 19.1333C7.92014 20.2076 8.01181 21.3854 8.30903 22.793C9.63949 23.3358 11.0631 23.6137 12.5 23.6111ZM8.12778 24.2139C8.03433 24.2673 7.92975 24.2983 7.82228 24.3043C7.71481 24.3104 7.6074 24.2914 7.50854 24.2488C7.40967 24.2063 7.32205 24.1413 7.2526 24.0591C7.18314 23.9768 7.13376 23.8796 7.10834 23.775C6.67223 21.9805 6.49931 20.4368 6.65278 18.9868C6.80764 17.5285 7.2882 16.2042 8.10209 14.843C8.31181 14.493 8.33681 14.2944 8.33264 14.2097C8.33263 14.1843 8.32703 14.1591 8.31623 14.1361C8.30543 14.113 8.2897 14.0927 8.27014 14.0764C8.19028 14.0103 8.09724 13.962 7.99723 13.9347C7.92164 13.9117 7.84394 13.8964 7.76528 13.8889C7.19723 13.8889 6.91667 14.3632 6.66251 14.7917L6.65001 14.8125L6.61389 14.8736C5.12778 17.3583 4.61945 19.7625 4.96459 23.2166C4.97918 23.3636 4.94652 23.5115 4.87134 23.6386C4.79617 23.7658 4.6824 23.8657 4.54657 23.9238C4.41074 23.9818 4.25993 23.9951 4.11606 23.9616C3.97218 23.9281 3.84274 23.8496 3.74654 23.7375C3.25001 23.8625 2.84654 23.9951 2.54376 24.1291C2.39654 24.1944 2.28682 24.2541 2.20695 24.3055C2.28682 24.3569 2.39654 24.4166 2.54376 24.4819C3.03404 24.6993 3.78681 24.9118 4.77154 25.0965C6.72848 25.4632 9.46112 25.6944 12.5 25.6944C15.5389 25.6944 18.2715 25.4632 20.2292 25.0965C21.2132 24.9118 21.966 24.6993 22.4562 24.4812C22.6035 24.4166 22.7132 24.3562 22.793 24.3055C22.6849 24.2391 22.5724 24.1802 22.4562 24.1291C22.159 23.9972 21.7653 23.8673 21.2819 23.7444C21.1854 23.8554 21.0561 23.9327 20.9127 23.9653C20.7693 23.9979 20.6193 23.9841 20.4843 23.9258C20.3493 23.8675 20.2364 23.7678 20.1618 23.641C20.0872 23.5143 20.0549 23.3671 20.0694 23.2208C20.3875 19.8132 19.5931 17.3958 18.1757 14.8555C18.1535 14.8167 18.1317 14.7768 18.1104 14.7361C18.0146 14.5583 17.9132 14.3715 17.7562 14.1958C17.5799 13.9986 17.3917 13.8889 17.1507 13.8889C17.1458 13.8889 17.0667 13.8958 16.9611 13.9305C16.8749 13.9563 16.7954 14.0004 16.7278 14.0597C16.7078 14.0787 16.6921 14.1017 16.6817 14.1272C16.6713 14.1527 16.6664 14.1801 16.6674 14.2076C16.6625 14.3048 16.6903 14.5104 16.8861 14.8604C17.6306 16.1951 18.1674 17.5007 18.4049 18.9472C18.6431 20.3958 18.575 21.9458 18.1618 23.7646C18.1356 23.88 18.0803 23.9868 18.0012 24.0748C17.9222 24.1629 17.8219 24.2292 17.71 24.2676C17.598 24.306 17.4781 24.3152 17.3616 24.2942C17.2452 24.2733 17.136 24.2229 17.0444 24.1479C15.5958 24.712 14.0546 25.001 12.5 25C10.9618 25 9.48889 24.7222 8.12778 24.2139Z" fill="#00FFCC"/>
</svg>
