<svg width="26" height="61" viewBox="0 0 26 61" fill="none" xmlns="http://www.w3.org/2000/svg">
<path d="M0.614046 32.4003L22.6777 60.2751C23.0458 60.7404 23.5349 61 24.0435 61C24.5522 61 25.0413 60.7404 25.4094 60.2751L25.4332 60.2436C25.6123 60.018 25.7549 59.7464 25.8523 59.4455C25.9497 59.1445 26 58.8204 26 58.4929C26 58.1653 25.9497 57.8412 25.8523 57.5403C25.7549 57.2393 25.6123 56.9678 25.4332 56.7422L4.65621 30.4948L25.4332 4.25784C25.6123 4.03225 25.7549 3.76071 25.8523 3.45974C25.9497 3.15878 26 2.83467 26 2.50713C26 2.1796 25.9497 1.8555 25.8523 1.55453C25.7549 1.25356 25.6123 0.982021 25.4332 0.756432L25.4094 0.724934C25.0413 0.259594 24.5522 0 24.0435 0C23.5349 0 23.0458 0.259594 22.6777 0.724934L0.614046 28.5997C0.420005 28.8448 0.265527 29.1397 0.159977 29.4663C0.0544262 29.793 0 30.1446 0 30.5C0 30.8554 0.0544262 31.207 0.159977 31.5337C0.265527 31.8603 0.420005 32.1552 0.614046 32.4003Z" fill="#00FFCC"/>
</svg>
