<svg width="30" height="24" viewBox="0 0 30 24" fill="none" xmlns="http://www.w3.org/2000/svg">
<path d="M19.4923 0L13.3423 3.9381L13.9657 4.27863L19.4373 0.774887L28.718 6.01921L23.3947 9.42787L23.654 9.56946V10.0015L27.8235 7.33156L28.6986 7.82611L23.6539 11.0563V11.796L27.7419 9.17833L28.6986 9.71906L23.6539 12.9493V13.689L27.7419 11.0713L28.6986 11.612L23.6539 14.8422V15.5819L29.9808 11.5305L28.4105 10.6432L29.9808 9.63767L28.4104 8.75028L29.9807 7.74471L28.492 6.90345L30 5.93775L19.4923 0ZM21.4573 2.82294C20.1267 3.48898 18.3543 3.60167 17.1064 3.09949L14.667 4.66157L22.6933 9.04488L25.0071 7.56337C24.0957 6.84559 24.1716 5.77459 25.1931 4.93414L21.4573 2.82294ZM13.1977 5.15397L8.72684 8.06234L17.3039 12.988L17.388 12.9344C17.5461 12.8328 17.7694 12.6889 18.0358 12.5171C18.5684 12.1737 19.2731 11.7183 19.9759 11.264C20.988 10.6097 21.5095 10.2722 21.9945 9.95832L13.1977 5.15397ZM20.5008 5.22779H20.501C20.7032 5.22903 20.8887 5.27228 21.0272 5.35052C21.1078 5.39605 21.1703 5.45221 21.2112 5.5158C21.252 5.57939 21.2704 5.64916 21.2653 5.72113C21.2602 5.79309 21.2317 5.86584 21.1814 5.93522C21.1311 6.00459 21.06 6.06924 20.9722 6.12547C20.8844 6.18169 20.7815 6.2284 20.6696 6.26292C20.5576 6.29744 20.4387 6.3191 20.3196 6.32665C20.2006 6.33421 20.0837 6.32752 19.9756 6.30697C19.8676 6.28641 19.7705 6.2524 19.6899 6.20686C19.5272 6.11491 19.4416 5.98161 19.4519 5.83631C19.4622 5.691 19.5676 5.54558 19.745 5.43204C19.8457 5.36754 19.9659 5.31567 20.0968 5.28031C20.2277 5.24494 20.3658 5.22699 20.5008 5.22779ZM6.68595 8.20058L0.0192907 12.4694L1.50796 13.3106L0 14.2763L1.57032 15.1637L0 16.1693L1.57032 17.0566L0 18.0622L10.5077 24L16.8517 19.9375V19.198L10.5628 23.225L1.28216 17.9807L2.18377 17.4033L10.5077 22.107L16.8517 18.0446V17.3051L10.5628 21.3322L1.28216 16.0878L2.18377 15.5104L10.5077 20.2141L16.8517 16.1517V15.4122L10.5628 19.4393L1.28216 14.1949L2.12147 13.6573L10.5271 18.4072L16.8517 14.3572V14.0385L16.5051 13.8395L10.582 17.6322L1.30158 12.3879L7.29497 8.55014L6.68589 8.20039L6.68595 8.20058ZM7.98 8.94386L5.01241 10.844C5.92381 11.5617 5.84791 12.6327 4.82633 13.4732L8.56227 15.5844C9.89282 14.9183 11.665 14.8057 12.9129 15.3078L15.8201 13.4462L7.97988 8.9438L7.98 8.94386ZM22.5155 10.9749C22.0067 11.3041 21.558 11.5947 20.5951 12.2172C19.9483 12.6355 19.3012 13.0534 18.654 13.4711C18.3873 13.643 18.1635 13.7872 18.0039 13.8895C17.9982 13.8933 17.9959 13.8946 17.9903 13.8982V19.3197L22.5155 16.2855L22.5155 10.9749ZM9.80326 12.0779C10.0056 12.0791 10.191 12.1224 10.3295 12.2007C10.4922 12.2927 10.5778 12.426 10.5675 12.5713C10.5572 12.7166 10.4518 12.862 10.2745 12.9755C10.0971 13.0891 9.86246 13.1614 9.62204 13.1767C9.38162 13.1919 9.15514 13.1489 8.99242 13.0569C8.82969 12.965 8.74407 12.8317 8.75439 12.6864C8.76471 12.5411 8.87012 12.3956 9.04744 12.2821C9.14814 12.2176 9.26842 12.1658 9.3993 12.1304C9.53017 12.0951 9.66826 12.0771 9.80326 12.0779V12.0779Z" fill="#00FFCC"/>
</svg>
