<svg width="32" height="24" viewBox="0 0 32 24" fill="none" xmlns="http://www.w3.org/2000/svg">
<path d="M31.7164 18.3685C31.091 19.1351 29.5593 19.6814 29.5593 19.6814L18.1673 23.6584V20.7247L26.5513 17.8207C27.5026 17.4904 27.6481 17.0216 26.8757 16.776C26.1033 16.5304 24.7055 16.5995 23.7528 16.9327L18.1673 18.8442V15.8019L18.4888 15.6946C18.4888 15.6946 20.1033 15.1398 22.3724 14.8955C24.643 14.6527 27.4226 14.9294 29.6044 15.7327C32.0626 16.488 32.339 17.6019 31.7164 18.3685ZM19.2509 13.3736V5.87576C19.2509 4.99482 19.0837 4.18447 18.2328 3.95576C17.5826 3.75247 17.1782 4.33976 17.1782 5.21929V24L11.9666 22.392V0C14.1818 0.399529 17.4109 1.34541 19.1462 1.91294C23.5608 3.38541 25.0575 5.21929 25.0575 9.34871C25.0575 13.3736 22.5004 14.8998 19.2509 13.3751M2.40288 20.4198C-0.122217 19.728 -0.542582 18.288 0.607968 17.4593C1.67124 16.6941 3.48071 16.1181 3.48071 16.1181L10.9542 13.5346V16.4795L5.57526 18.3501C4.62544 18.6805 4.47998 19.1492 5.25089 19.3948C6.02471 19.6419 7.42254 19.5713 8.37381 19.2395L10.9542 18.3304V20.9633L10.4393 21.048C7.8589 21.4574 5.11126 21.2866 2.40288 20.4198Z" fill="#00FFCC"/>
</svg>
