<svg width="26" height="61" viewBox="0 0 26 61" fill="none" xmlns="http://www.w3.org/2000/svg">
<path d="M25.386 32.4003L3.32232 60.2751C2.95417 60.7404 2.46507 61 1.95645 61C1.44783 61 0.958733 60.7404 0.59059 60.2751L0.566833 60.2436C0.387747 60.018 0.245146 59.7464 0.147699 59.4455C0.0502529 59.1445 0 58.8204 0 58.4929C0 58.1653 0.0502529 57.8412 0.147699 57.5403C0.245146 57.2393 0.387747 56.9678 0.566833 56.7422L21.3438 30.4948L0.566833 4.25784C0.387747 4.03225 0.245146 3.76071 0.147699 3.45974C0.0502529 3.15878 0 2.83467 0 2.50713C0 2.1796 0.0502529 1.8555 0.147699 1.55453C0.245146 1.25356 0.387747 0.982021 0.566833 0.756432L0.59059 0.724934C0.958733 0.259594 1.44783 0 1.95645 0C2.46507 0 2.95417 0.259594 3.32232 0.724934L25.386 28.5997C25.58 28.8448 25.7345 29.1397 25.84 29.4663C25.9456 29.793 26 30.1446 26 30.5C26 30.8554 25.9456 31.207 25.84 31.5337C25.7345 31.8603 25.58 32.1552 25.386 32.4003Z" fill="#00FFCC"/>
</svg>
