<svg width="26" height="26" viewBox="0 0 26 26" fill="none" xmlns="http://www.w3.org/2000/svg">
<path fill-rule="evenodd" clip-rule="evenodd" d="M13 1.44444C13 1.82753 13.1522 2.19493 13.4231 2.46582C13.694 2.73671 14.0614 2.88889 14.4444 2.88889H21.0687L13.4232 10.5343C13.2213 10.7363 13.0838 10.9937 13.028 11.2738C12.9723 11.554 13.0009 11.8444 13.1102 12.1083C13.2195 12.3722 13.4046 12.5977 13.6421 12.7565C13.8796 12.9152 14.1588 12.9999 14.4444 13H24.5556C24.9386 13 25.306 12.8478 25.5769 12.5769C25.8478 12.306 26 11.9386 26 11.5556C26 11.1725 25.8478 10.8051 25.5769 10.5342C25.306 10.2633 24.9386 10.1111 24.5556 10.1111H17.9313L25.5768 2.46567C25.7787 2.26366 25.9162 2.00631 25.972 1.72616C26.0277 1.446 25.9991 1.15562 25.8898 0.891721C25.7805 0.627821 25.5954 0.402253 25.3579 0.243531C25.1204 0.0848093 24.8412 6.09907e-05 24.5556 0H14.4444C14.0614 0 13.694 0.152182 13.4231 0.423068C13.1522 0.693954 13 1.06135 13 1.44444ZM1.44444 10.1111C1.06135 10.1111 0.693954 9.95893 0.423068 9.68804C0.152182 9.41716 0 9.04976 0 8.66667C0 8.28358 0.152182 7.91618 0.423068 7.64529C0.693954 7.3744 1.06135 7.22222 1.44444 7.22222H8.66667C8.95231 7.22228 9.23151 7.30703 9.46899 7.46575C9.70648 7.62447 9.89157 7.85004 10.0009 8.11394C10.1102 8.37784 10.1388 8.66822 10.0831 8.94838C10.0274 9.22853 9.88984 9.48588 9.68789 9.68789L4.93133 14.4444H8.66667C9.04976 14.4444 9.41716 14.5966 9.68804 14.8675C9.95893 15.1384 10.1111 15.5058 10.1111 15.8889C10.1111 16.272 9.95893 16.6394 9.68804 16.9103C9.41716 17.1812 9.04976 17.3333 8.66667 17.3333H1.44444C1.15881 17.3333 0.879596 17.2485 0.642115 17.0898C0.404634 16.9311 0.219544 16.7055 0.110243 16.4416C0.000941832 16.1777 -0.0276625 15.8873 0.0280462 15.6072C0.0837549 15.327 0.221275 15.0697 0.423222 14.8677L5.17978 10.1111H1.44444ZM13 20.2222C12.6169 20.2222 12.2495 20.07 11.9786 19.7992C11.7077 19.5283 11.5556 19.1609 11.5556 18.7778C11.5556 18.3947 11.7077 18.0273 11.9786 17.7564C12.2495 17.4855 12.6169 17.3333 13 17.3333H18.7778C19.0634 17.3334 19.3426 17.4181 19.5801 17.5769C19.8176 17.7356 20.0027 17.9612 20.112 18.2251C20.2213 18.489 20.2499 18.7793 20.1942 19.0595C20.1385 19.3396 20.0009 19.597 19.799 19.799L16.4869 23.1111H18.7778C19.1609 23.1111 19.5283 23.2633 19.7992 23.5342C20.07 23.8051 20.2222 24.1725 20.2222 24.5556C20.2222 24.9386 20.07 25.306 19.7992 25.5769C19.5283 25.8478 19.1609 26 18.7778 26H13C12.7144 25.9999 12.4352 25.9152 12.1977 25.7565C11.9602 25.5977 11.7751 25.3722 11.6658 25.1083C11.5565 24.8444 11.5279 24.554 11.5836 24.2738C11.6393 23.9937 11.7768 23.7363 11.9788 23.5343L15.2909 20.2222H13Z" fill="#00FFCC"/>
</svg>
