<svg width="27" height="27" viewBox="0 0 27 27" fill="none" xmlns="http://www.w3.org/2000/svg">
<path d="M13.5 0C9.92039 0 6.48422 1.4232 3.95508 3.95402C1.42335 6.48587 0.000724462 9.91951 0 13.5C0 17.079 1.42383 20.5151 3.95508 23.046C6.48422 25.5768 9.92039 27 13.5 27C17.0796 27 20.5158 25.5768 23.0449 23.046C25.5762 20.5151 27 17.079 27 13.5C27 9.92102 25.5762 6.48485 23.0449 3.95402C20.5158 1.4232 17.0796 0 13.5 0Z" fill="url(#paint0_linear_598_43)"/>
<path d="M6.11021 13.3573C10.0463 11.6428 12.6704 10.5125 13.9824 9.96627C17.7329 8.40681 18.5112 8.13596 19.0196 8.12679C19.1314 8.125 19.3803 8.15263 19.5427 8.28394C19.6777 8.39468 19.7157 8.54445 19.7347 8.6496C19.7515 8.75464 19.7747 8.99406 19.7558 9.18095C19.5533 11.3156 18.6737 16.4958 18.2265 18.8868C18.0387 19.8985 17.6654 20.2377 17.3047 20.2708C16.52 20.3429 15.9251 19.7527 15.1658 19.2551C13.9782 18.4761 13.3074 17.9914 12.1536 17.2314C10.8204 16.353 11.6853 15.8702 12.4447 15.0813C12.6429 14.8748 16.0981 11.7329 16.1635 11.4479C16.1719 11.4122 16.1804 11.2794 16.1002 11.2093C16.0222 11.1391 15.9062 11.1631 15.8218 11.1821C15.7015 11.2091 13.8052 12.4638 10.1265 14.9459C9.58857 15.3159 9.10131 15.4962 8.66256 15.4867C8.18162 15.4764 7.2535 15.2142 6.56373 14.9902C5.71998 14.7153 5.04709 14.57 5.10615 14.1032C5.13568 13.8602 5.47107 13.6115 6.11021 13.3573Z" fill="white"/>
<defs>
<linearGradient id="paint0_linear_598_43" x1="1350" y1="0" x2="1350" y2="2700" gradientUnits="userSpaceOnUse">
<stop stop-color="#3FE8C6"/>
<stop offset="1" stop-color="#29C7A7"/>
</linearGradient>
</defs>
</svg>
