<svg width="28" height="28" viewBox="0 0 28 28" fill="none" xmlns="http://www.w3.org/2000/svg">
<rect x="4.40527" y="6" width="20" height="16" fill="white"/>
<path fill-rule="evenodd" clip-rule="evenodd" d="M6.09013 0C4.47493 0 2.92588 0.641636 1.78376 1.78376C0.641636 2.92588 0 4.47493 0 6.09013V21.3155C0 22.9307 0.641636 24.4797 1.78376 25.6218C2.92588 26.7639 4.47493 27.4056 6.09013 27.4056H21.3155C22.9307 27.4056 24.4797 26.7639 25.6218 25.6218C26.7639 24.4797 27.4056 22.9307 27.4056 21.3155V6.09013C27.4056 4.47493 26.7639 2.92588 25.6218 1.78376C24.4797 0.641636 22.9307 0 21.3155 0H6.09013ZM21.8209 10.7415C22.045 10.4055 22.1265 9.99427 22.0474 9.59824C21.9683 9.20221 21.7352 8.85382 21.3992 8.62971C21.0632 8.4056 20.652 8.32413 20.256 8.40323C19.8599 8.48232 19.5115 8.71549 19.2874 9.05145C18.7485 9.76704 18.1836 10.4522 17.5228 11.0612C16.757 11.7677 15.982 12.2975 15.2268 12.6111L15.2147 9.71832C15.171 9.34797 14.993 9.0065 14.7143 8.75869C14.4356 8.51089 14.0757 8.37398 13.7028 8.37393C12.8776 8.42113 12.1803 9.03014 12.1803 9.89646V16.5545C9.21437 15.7323 7.61266 12.8547 7.61266 9.89646C7.61266 9.49266 7.45225 9.1054 7.16672 8.81987C6.88119 8.53434 6.49393 8.37393 6.09013 8.37393C5.68633 8.37393 5.29907 8.53434 5.01354 8.81987C4.72801 9.1054 4.5676 9.49266 4.5676 9.89646C4.5676 15.4263 8.38915 19.7929 13.7028 19.7929C14.1066 19.7929 14.4939 19.6325 14.7794 19.347C15.0649 19.0614 15.2253 18.6742 15.2253 18.2704V15.8907C17.2533 16.0521 19.2204 17.4848 19.9543 18.951C20.0398 19.1361 20.1616 19.3021 20.3125 19.4392C20.4634 19.5764 20.6403 19.6818 20.8328 19.7493C21.0252 19.8167 21.2292 19.8448 21.4327 19.832C21.6362 19.8191 21.835 19.7655 22.0174 19.6743C22.1998 19.5831 22.362 19.4562 22.4944 19.3011C22.6268 19.1461 22.7267 18.966 22.7882 18.7716C22.8496 18.5771 22.8715 18.3724 22.8523 18.1694C22.8331 17.9664 22.7734 17.7693 22.6766 17.5898C21.9488 16.1328 20.5907 14.7701 18.919 13.8809C19.1443 13.6962 19.3676 13.5023 19.5889 13.2993C20.4278 12.5344 21.1767 11.6762 21.8209 10.7415Z" fill="#00FFCC"/>
</svg>
