<svg width="28" height="28" viewBox="0 0 28 28" fill="none" xmlns="http://www.w3.org/2000/svg">
<path d="M13.875 27C21.1235 27 27 21.1235 27 13.875C27 6.6265 21.1235 0.75 13.875 0.75C6.6265 0.75 0.75 6.6265 0.75 13.875C0.75 21.1235 6.6265 27 13.875 27Z" stroke="#00FFCC" stroke-width="1.5" stroke-miterlimit="10" stroke-linecap="round" stroke-linejoin="round"/>
<path d="M19.4167 17.8125V9.9375L23.3542 17.8125V9.9375M12.5625 17.8125V14.5318M12.5625 14.5318V9.9375H14.2028C14.8121 9.9375 15.3964 10.1795 15.8272 10.6103C16.258 11.0411 16.5 11.6254 16.5 12.2347C16.5 12.8439 16.258 13.4282 15.8272 13.859C15.3964 14.2898 14.8121 14.5318 14.2028 14.5318H12.5625ZM9.64583 9.9375L7.83633 17.1755C7.79132 17.3578 7.68654 17.5197 7.53872 17.6355C7.39091 17.7512 7.20857 17.8141 7.02083 17.8141C6.83308 17.8141 6.65075 17.7512 6.50293 17.6355C6.35512 17.5197 6.25034 17.3578 6.20533 17.1755L4.39583 9.9375" stroke="#00FFCC" stroke-width="1.5" stroke-linecap="round" stroke-linejoin="round"/>
</svg>
