<svg width="26" height="26" viewBox="0 0 26 26" fill="none" xmlns="http://www.w3.org/2000/svg">
<path d="M13 9.4055C16.7791 13.2353 19.4428 17.7255 21.6684 22.6876C19.2874 24.8248 16.1995 26.0048 13 26C9.80053 26.0048 6.71259 24.8248 4.33162 22.6876C6.55721 17.7255 9.21961 13.2353 13 9.4055ZM4.56172 3.11091C6.90091 4.37209 9.09495 5.88564 11.1046 7.6245C7.35281 11.4387 4.65662 15.8327 2.43752 20.5803C0.848168 18.3727 -0.00475634 15.7202 1.99509e-05 13C-0.00171293 11.1195 0.40535 9.26119 1.19302 7.55364C1.98068 5.8461 3.13012 4.33019 4.56172 3.11091ZM21.4383 3.11091C22.8699 4.33019 24.0193 5.8461 24.807 7.55364C25.5947 9.26119 26.0017 11.1195 26 13C26 15.8288 25.0965 18.447 23.5625 20.579C21.3434 15.8327 18.6472 11.44 14.8954 7.6245C16.9051 5.88564 19.0991 4.37209 21.4383 3.11091ZM13 1.27457e-05C15.1775 1.27457e-05 17.2302 0.535612 19.0333 1.48201C16.8862 2.7318 14.8656 4.18727 13 5.82791C11.1344 4.18727 9.11383 2.7318 6.96671 1.48201C8.82774 0.505705 10.8984 -0.00293571 13 1.27457e-05Z" fill="#00FFCC"/>
</svg>
