<svg width="37" height="27" viewBox="0 0 37 27" fill="none" xmlns="http://www.w3.org/2000/svg">
<rect x="11" y="6" width="14" height="14" fill="white"/>
<path fill-rule="evenodd" clip-rule="evenodd" d="M36.2264 4.21548C36.0163 3.40075 35.6037 2.65727 35.0298 2.05914C34.4558 1.46101 33.7405 1.02912 32.9552 0.806516C30.0709 -3.11482e-07 18.5 0 18.5 0C18.5 0 6.92909 -3.11482e-07 4.04477 0.806516C3.25946 1.02912 2.54419 1.46101 1.97025 2.05914C1.3963 2.65727 0.983724 3.40075 0.773636 4.21548C5.01221e-08 7.22555 0 13.5 0 13.5C0 13.5 5.01221e-08 19.7745 0.773636 22.7845C0.983467 23.5996 1.39593 24.3434 1.96989 24.9419C2.54385 25.5403 3.25926 25.9725 4.04477 26.1952C6.93077 27 18.5 27 18.5 27C18.5 27 30.0709 27 32.9552 26.1952C33.7407 25.9725 34.4561 25.5403 35.0301 24.9419C35.6041 24.3434 36.0165 23.5996 36.2264 22.7845C37 19.7779 37 13.5 37 13.5C37 13.5 37 7.22555 36.2264 4.21548ZM14.7159 7.80213V19.1979L24.3864 13.5L14.7159 7.80213Z" fill="#00FFCC"/>
</svg>
