<svg width="317" height="145" viewBox="0 0 317 145" fill="none" xmlns="http://www.w3.org/2000/svg">
<g filter="url(#filter0_f_269_97)">
<path d="M10 97.1994C10 95.2588 10.4983 93.5018 11.4948 91.9284C12.5087 90.3375 13.8549 89.07 15.5332 88.1259C17.2115 87.1819 19.0734 86.7099 21.1189 86.7099H38.7674V92.2168H21.1189C19.5804 92.2168 18.2605 92.7064 17.1591 93.6854C16.0752 94.6469 15.5332 95.8095 15.5332 97.1731V113.537C15.5332 114.9 16.0752 116.072 17.1591 117.051C18.2605 118.012 19.5804 118.493 21.1189 118.493H29.8514C31.4073 118.493 32.7272 118.012 33.8112 117.051C34.8951 116.072 35.437 114.9 35.437 113.537V108.659H25.3147V103.152H40.9702V113.511C40.9702 115.434 40.472 117.191 39.4755 118.781C38.479 120.372 37.1328 121.64 35.437 122.584C33.7587 123.528 31.8968 124 29.8514 124H21.1189C19.0734 124 17.2115 123.528 15.5332 122.584C13.8549 121.64 12.5087 120.372 11.4948 118.781C10.4983 117.191 10 115.434 10 113.511V97.1994ZM58.5401 86.7099H65.437L78.7848 124H72.8845L68.8198 112.776H58.409L60.402 107.269H66.8268L62.0017 93.9476L51.0926 124H45.1923L58.5401 86.7099ZM83.5313 86.7099H88.5925L100.629 101.421L112.666 86.7099H117.727V124H112.194V96.1242L102.937 107.348H98.3477L89.0645 96.1242V124H83.5313V86.7099ZM125.07 86.7099H153.994V92.2168H130.603V118.467H153.994V124H125.07V86.7099ZM133.75 101.841H153.994V107.348H133.75V101.841ZM203.531 86.7099H223.173C224.903 86.7099 226.468 87.1207 227.867 87.9424C229.265 88.7641 230.375 89.8655 231.197 91.2466C232.036 92.6277 232.456 94.1749 232.456 95.8882V98.327C232.456 100.757 231.757 102.601 230.358 103.86C231.599 104.664 232.5 105.626 233.059 106.745C233.618 107.846 233.898 109.227 233.898 110.888V115.005C233.898 116.649 233.479 118.152 232.639 119.516C231.818 120.879 230.708 121.972 229.309 122.794C227.91 123.598 226.363 124 224.667 124H203.531V86.7099ZM224.72 118.467C225.734 118.467 226.599 118.126 227.316 117.444C228.033 116.745 228.391 115.906 228.391 114.927V110.809C228.391 109.83 228.033 108.991 227.316 108.292C226.599 107.593 225.725 107.243 224.694 107.243H212.211V101.736H223.173C224.204 101.736 225.087 101.404 225.821 100.74C226.573 100.058 226.949 99.2361 226.949 98.2745V95.8882C226.949 94.8742 226.573 94.0088 225.821 93.292C225.087 92.5752 224.204 92.2168 223.173 92.2168H209.064V118.467H224.72ZM251.18 86.7099H258.076L271.424 124H265.524L261.459 112.776H251.048L253.042 107.269H259.466L254.641 93.9476L243.732 124H237.832L251.18 86.7099ZM276.171 86.7099H295.891C297.587 86.7099 299.125 87.1294 300.506 87.9686C301.905 88.7903 303.015 89.8917 303.837 91.2728C304.676 92.6539 305.096 94.1924 305.096 95.8882V99.6119C305.096 101.308 304.685 102.837 303.863 104.201C303.059 105.565 301.957 106.649 300.559 107.453C299.16 108.257 297.596 108.659 295.865 108.659L306.984 124H300.244L289.125 108.659H284.851V103.152H295.891C296.923 103.152 297.797 102.802 298.513 102.103C299.23 101.386 299.589 100.53 299.589 99.5333V95.8882C299.589 94.8742 299.23 94.0088 298.513 93.292C297.797 92.5752 296.923 92.2168 295.891 92.2168H281.704V124H276.171V86.7099Z" fill="white"/>
<path d="M176.049 83.8253H181.005V134.017H176.049V83.8253Z" fill="#00FFCC"/>
</g>
<path d="M10 97.1994C10 95.2588 10.4983 93.5018 11.4948 91.9284C12.5087 90.3375 13.8549 89.07 15.5332 88.1259C17.2115 87.1819 19.0734 86.7099 21.1189 86.7099H38.7674V92.2168H21.1189C19.5804 92.2168 18.2605 92.7064 17.1591 93.6854C16.0752 94.6469 15.5332 95.8095 15.5332 97.1731V113.537C15.5332 114.9 16.0752 116.072 17.1591 117.051C18.2605 118.012 19.5804 118.493 21.1189 118.493H29.8514C31.4073 118.493 32.7272 118.012 33.8112 117.051C34.8951 116.072 35.437 114.9 35.437 113.537V108.659H25.3147V103.152H40.9702V113.511C40.9702 115.434 40.472 117.191 39.4755 118.781C38.479 120.372 37.1328 121.64 35.437 122.584C33.7587 123.528 31.8968 124 29.8514 124H21.1189C19.0734 124 17.2115 123.528 15.5332 122.584C13.8549 121.64 12.5087 120.372 11.4948 118.781C10.4983 117.191 10 115.434 10 113.511V97.1994ZM58.5401 86.7099H65.437L78.7848 124H72.8845L68.8198 112.776H58.409L60.402 107.269H66.8268L62.0017 93.9476L51.0926 124H45.1923L58.5401 86.7099ZM83.5313 86.7099H88.5925L100.629 101.421L112.666 86.7099H117.727V124H112.194V96.1242L102.937 107.348H98.3477L89.0645 96.1242V124H83.5313V86.7099ZM125.07 86.7099H153.994V92.2168H130.603V118.467H153.994V124H125.07V86.7099ZM133.75 101.841H153.994V107.348H133.75V101.841ZM203.531 86.7099H223.173C224.903 86.7099 226.468 87.1207 227.867 87.9424C229.265 88.7641 230.375 89.8655 231.197 91.2466C232.036 92.6277 232.456 94.1749 232.456 95.8882V98.327C232.456 100.757 231.757 102.601 230.358 103.86C231.599 104.664 232.5 105.626 233.059 106.745C233.618 107.846 233.898 109.227 233.898 110.888V115.005C233.898 116.649 233.479 118.152 232.639 119.516C231.818 120.879 230.708 121.972 229.309 122.794C227.91 123.598 226.363 124 224.667 124H203.531V86.7099ZM224.72 118.467C225.734 118.467 226.599 118.126 227.316 117.444C228.033 116.745 228.391 115.906 228.391 114.927V110.809C228.391 109.83 228.033 108.991 227.316 108.292C226.599 107.593 225.725 107.243 224.694 107.243H212.211V101.736H223.173C224.204 101.736 225.087 101.404 225.821 100.74C226.573 100.058 226.949 99.2361 226.949 98.2745V95.8882C226.949 94.8742 226.573 94.0088 225.821 93.292C225.087 92.5752 224.204 92.2168 223.173 92.2168H209.064V118.467H224.72ZM251.18 86.7099H258.076L271.424 124H265.524L261.459 112.776H251.048L253.042 107.269H259.466L254.641 93.9476L243.732 124H237.832L251.18 86.7099ZM276.171 86.7099H295.891C297.587 86.7099 299.125 87.1294 300.506 87.9686C301.905 88.7903 303.015 89.8917 303.837 91.2728C304.676 92.6539 305.096 94.1924 305.096 95.8882V99.6119C305.096 101.308 304.685 102.837 303.863 104.201C303.059 105.565 301.957 106.649 300.559 107.453C299.16 108.257 297.596 108.659 295.865 108.659L306.984 124H300.244L289.125 108.659H284.851V103.152H295.891C296.923 103.152 297.797 102.802 298.513 102.103C299.23 101.386 299.589 100.53 299.589 99.5333V95.8882C299.589 94.8742 299.23 94.0088 298.513 93.292C297.797 92.5752 296.923 92.2168 295.891 92.2168H281.704V124H276.171V86.7099Z" fill="white"/>
<path d="M176.049 83.8253H181.005V134.017H176.049V83.8253Z" fill="#00FFCC"/>
<g filter="url(#filter1_f_269_97)">
<path d="M220.516 15.1644L198.749 51.5074C198.3 52.2845 198.063 53.1655 198.06 54.0629C198.058 54.9602 198.29 55.8426 198.734 56.6222C199.178 57.4019 199.819 58.0516 200.592 58.5068C201.366 58.962 202.245 59.2069 203.142 59.2169H246.682C247.578 59.2066 248.457 58.9617 249.23 58.5066C250.003 58.0516 250.643 57.4021 251.087 56.6229C251.532 55.8437 251.764 54.9617 251.762 54.0648C251.76 53.1679 251.523 52.2871 251.075 51.5101L229.308 15.1617C228.85 14.4058 228.205 13.7808 227.435 13.347C226.664 12.9132 225.796 12.6853 224.912 12.6853C224.028 12.6853 223.159 12.9132 222.389 13.347C221.619 13.7808 220.974 14.4058 220.516 15.1617V15.1644Z" stroke="#00FFCC" stroke-width="5.37062" stroke-linecap="round" stroke-linejoin="round"/>
</g>
<path d="M220.515 15.1644L198.748 51.5074C198.3 52.2845 198.062 53.1655 198.06 54.0629C198.057 54.9602 198.289 55.8426 198.734 56.6222C199.178 57.4019 199.819 58.0516 200.592 58.5068C201.365 58.962 202.244 59.2069 203.142 59.2169H246.681C247.578 59.2066 248.457 58.9617 249.229 58.5066C250.002 58.0516 250.643 57.4021 251.087 56.6229C251.531 55.8437 251.764 54.9617 251.761 54.0648C251.759 53.1679 251.522 52.2871 251.074 51.5101L229.307 15.1617C228.849 14.4058 228.204 13.7808 227.434 13.347C226.664 12.9132 225.795 12.6853 224.911 12.6853C224.028 12.6853 223.159 12.9132 222.389 13.347C221.619 13.7808 220.973 14.4058 220.515 15.1617V15.1644Z" stroke="#00FFCC" stroke-width="5.37062" stroke-linecap="round" stroke-linejoin="round"/>
<g filter="url(#filter2_f_269_97)">
<path d="M179.263 58.3356L136.298 15.3706L179.263 58.3356ZM179.263 15.3706L136.298 58.3356L179.263 15.3706Z" fill="#00FFCC"/>
<path d="M179.263 58.3356L136.298 15.3706M179.263 15.3706L136.298 58.3356" stroke="#00FFCC" stroke-width="5.37062" stroke-linecap="round"/>
</g>
<path d="M179.263 58.3356L136.298 15.3706L179.263 58.3356ZM179.263 15.3706L136.298 58.3356L179.263 15.3706Z" fill="#00FFCC"/>
<path d="M179.263 58.3356L136.298 15.3706M179.263 15.3706L136.298 58.3356" stroke="#00FFCC" stroke-width="5.37062" stroke-linecap="round"/>
<g filter="url(#filter3_f_269_97)">
<path d="M90.6475 63.7062C86.9329 63.7062 83.442 63.0008 80.1748 61.5902C76.9077 60.1795 74.0657 58.2666 71.649 55.8517C69.2322 53.4367 67.3194 50.5947 65.9105 47.3258C64.5016 44.0569 63.7962 40.566 63.7944 36.8531C63.7926 33.1402 64.498 29.6493 65.9105 26.3804C67.3229 23.1115 69.2358 20.2695 71.649 17.8545C74.0622 15.4395 76.9041 13.5267 80.1748 12.116C83.4455 10.7053 86.9364 10 90.6475 10C94.3586 10 97.8495 10.7053 101.12 12.116C104.391 13.5267 107.233 15.4395 109.646 17.8545C112.059 20.2695 113.973 23.1115 115.387 26.3804C116.802 29.6493 117.506 33.1402 117.501 36.8531C117.495 40.566 116.79 44.0569 115.385 47.3258C113.979 50.5947 112.066 53.4367 109.646 55.8517C107.226 58.2666 104.384 60.1804 101.12 61.5928C97.8567 63.0053 94.3658 63.7098 90.6475 63.7062ZM90.6475 58.3356C96.6447 58.3356 101.724 56.2544 105.887 52.0922C110.049 47.93 112.13 42.8503 112.13 36.8531C112.13 30.8559 110.049 25.7762 105.887 21.614C101.724 17.4517 96.6447 15.3706 90.6475 15.3706C84.6503 15.3706 79.5706 17.4517 75.4084 21.614C71.2462 25.7762 69.1651 30.8559 69.1651 36.8531C69.1651 42.8503 71.2462 47.93 75.4084 52.0922C79.5706 56.2544 84.6503 58.3356 90.6475 58.3356Z" fill="#00FFCC"/>
</g>
<path d="M90.648 63.7062C86.9333 63.7062 83.4424 63.0008 80.1753 61.5902C76.9082 60.1795 74.0662 58.2666 71.6495 55.8517C69.2327 53.4367 67.3198 50.5947 65.9109 47.3258C64.5021 44.0569 63.7967 40.566 63.7949 36.8531C63.7931 33.1402 64.4985 29.6493 65.9109 26.3804C67.3234 23.1115 69.2363 20.2695 71.6495 17.8545C74.0627 15.4395 76.9046 13.5267 80.1753 12.116C83.446 10.7053 86.9369 10 90.648 10C94.3591 10 97.85 10.7053 101.121 12.116C104.391 13.5267 107.233 15.4395 109.647 17.8545C112.06 20.2695 113.974 23.1115 115.388 26.3804C116.802 29.6493 117.506 33.1402 117.501 36.8531C117.496 40.566 116.79 44.0569 115.385 47.3258C113.98 50.5947 112.067 53.4367 109.647 55.8517C107.226 58.2666 104.384 60.1804 101.121 61.5928C97.8572 63.0053 94.3663 63.7098 90.648 63.7062ZM90.648 58.3356C96.6452 58.3356 101.725 56.2544 105.887 52.0922C110.049 47.93 112.13 42.8503 112.13 36.8531C112.13 30.8559 110.049 25.7762 105.887 21.614C101.725 17.4517 96.6452 15.3706 90.648 15.3706C84.6508 15.3706 79.5711 17.4517 75.4089 21.614C71.2467 25.7762 69.1655 30.8559 69.1655 36.8531C69.1655 42.8503 71.2467 47.93 75.4089 52.0922C79.5711 56.2544 84.6508 58.3356 90.648 58.3356Z" fill="#00FFCC"/>
<defs>
<filter id="filter0_f_269_97" x="0" y="73.8252" width="316.984" height="70.1923" filterUnits="userSpaceOnUse" color-interpolation-filters="sRGB">
<feFlood flood-opacity="0" result="BackgroundImageFix"/>
<feBlend mode="normal" in="SourceGraphic" in2="BackgroundImageFix" result="shape"/>
<feGaussianBlur stdDeviation="5" result="effect1_foregroundBlur_269_97"/>
</filter>
<filter id="filter1_f_269_97" x="185.375" y="0" width="79.0728" height="71.9022" filterUnits="userSpaceOnUse" color-interpolation-filters="sRGB">
<feFlood flood-opacity="0" result="BackgroundImageFix"/>
<feBlend mode="normal" in="SourceGraphic" in2="BackgroundImageFix" result="shape"/>
<feGaussianBlur stdDeviation="5" result="effect1_foregroundBlur_269_97"/>
</filter>
<filter id="filter2_f_269_97" x="123.612" y="2.6853" width="68.3359" height="68.3356" filterUnits="userSpaceOnUse" color-interpolation-filters="sRGB">
<feFlood flood-opacity="0" result="BackgroundImageFix"/>
<feBlend mode="normal" in="SourceGraphic" in2="BackgroundImageFix" result="shape"/>
<feGaussianBlur stdDeviation="5" result="effect1_foregroundBlur_269_97"/>
</filter>
<filter id="filter3_f_269_97" x="53.7944" y="0" width="73.7061" height="73.7062" filterUnits="userSpaceOnUse" color-interpolation-filters="sRGB">
<feFlood flood-opacity="0" result="BackgroundImageFix"/>
<feBlend mode="normal" in="SourceGraphic" in2="BackgroundImageFix" result="shape"/>
<feGaussianBlur stdDeviation="5" result="effect1_foregroundBlur_269_97"/>
</filter>
</defs>
</svg>
