<svg width="38" height="41" viewBox="0 0 38 41" fill="none" xmlns="http://www.w3.org/2000/svg">
<path d="M1.5 1.5H5.20955C6.50311 1.5 7.14874 1.5 7.66434 1.78289C7.8769 1.89991 8.06944 2.05009 8.23469 2.22777C8.63393 2.65895 8.79135 3.28634 9.1039 4.5411L9.51911 6.19968C9.74954 7.12136 9.86589 7.58221 10.0438 7.97004C10.348 8.63186 10.8062 9.21124 11.3801 9.65974C11.9541 10.1082 12.627 10.4128 13.3427 10.548C13.7625 10.6256 14.237 10.6256 15.1884 10.6256" stroke="#00FFCC" stroke-width="3" stroke-linecap="round"/>
<path d="M33.4395 31.1582H9.59885C9.26805 31.1582 9.10151 31.1582 8.97375 31.1445C8.65698 31.1092 8.35114 31.0078 8.07593 30.8471C7.80071 30.6863 7.56225 30.4696 7.37589 30.2111C7.18954 29.9525 7.05943 29.6577 6.99396 29.3458C6.92849 29.0339 6.92911 28.7117 6.99578 28.4C7.04823 28.198 7.10989 27.9986 7.18057 27.8023C7.2992 27.4509 7.35624 27.2753 7.4224 27.1178C7.74716 26.34 8.28104 25.6673 8.96483 25.1744C9.64862 24.6815 10.4556 24.3876 11.2962 24.3254C11.465 24.314 11.6521 24.314 12.0194 24.314H24.3139" stroke="#00FFCC" stroke-width="3" stroke-linecap="round" stroke-linejoin="round"/>
<path d="M25.5185 24.314H17.4104C14.6362 24.314 13.2491 24.314 12.1792 23.6866C11.7281 23.4212 11.326 23.08 10.9906 22.6782C10.1921 21.7246 9.96392 20.3558 9.50993 17.6204C9.0468 14.8485 8.81638 13.4614 9.3662 12.4348C9.59492 12.0063 9.91222 11.6315 10.297 11.3351C11.2187 10.6256 12.624 10.6256 15.4347 10.6256H30.6197C33.9277 10.6256 35.5817 10.6256 36.2525 11.707C36.9209 12.7907 36.1795 14.269 34.7011 17.228L33.6813 19.2698C32.4539 21.7246 31.8402 22.952 30.7383 23.6319C29.6341 24.314 28.263 24.314 25.5185 24.314Z" stroke="#00FFCC" stroke-width="3" stroke-linecap="round"/>
<path d="M31.158 37.221C31.5895 37.221 31.9391 37.5707 31.9392 38.0022C31.9392 38.4338 31.5895 38.7835 31.158 38.7835C30.7265 38.7834 30.3767 38.4337 30.3767 38.0022C30.3768 37.5708 30.7265 37.2211 31.158 37.221Z" fill="black" stroke="#00FFCC" stroke-width="3"/>
<path d="M12.9069 37.221C13.3384 37.221 13.688 37.5707 13.6881 38.0022C13.6881 38.4338 13.3384 38.7835 12.9069 38.7835C12.4754 38.7834 12.1256 38.4337 12.1256 38.0022C12.1257 37.5708 12.4754 37.2211 12.9069 37.221Z" fill="black" stroke="#00FFCC" stroke-width="3"/>
</svg>
