<svg width="119" height="54" viewBox="0 0 119 54" fill="none" xmlns="http://www.w3.org/2000/svg">
<g filter="url(#filter0_f_273_5)">
<path d="M81.8723 5.92322L73.7663 19.4572C73.5992 19.7466 73.5107 20.0747 73.5098 20.4089C73.5088 20.743 73.5954 21.0716 73.7608 21.362C73.9263 21.6523 74.1648 21.8943 74.4528 22.0638C74.7408 22.2333 75.0681 22.3245 75.4023 22.3282H91.6163C91.9503 22.3244 92.2774 22.2332 92.5653 22.0637C92.8531 21.8942 93.0916 21.6524 93.257 21.3622C93.4224 21.072 93.509 20.7436 93.5082 20.4096C93.5073 20.0756 93.4191 19.7476 93.2523 19.4582L85.1463 5.92222C84.9757 5.64072 84.7355 5.40796 84.4487 5.24642C84.162 5.08487 83.8384 5 83.5093 5C83.1801 5 82.8566 5.08487 82.5698 5.24642C82.2831 5.40796 82.0428 5.64072 81.8723 5.92222V5.92322Z" stroke="#00FFCC" stroke-width="2" stroke-linecap="round" stroke-linejoin="round"/>
</g>
<path d="M81.8723 5.92322L73.7663 19.4572C73.5992 19.7466 73.5107 20.0747 73.5098 20.4089C73.5088 20.743 73.5954 21.0716 73.7608 21.362C73.9263 21.6523 74.1648 21.8943 74.4528 22.0638C74.7408 22.2333 75.0681 22.3245 75.4023 22.3282H91.6163C91.9503 22.3244 92.2774 22.2332 92.5653 22.0637C92.8531 21.8942 93.0916 21.6524 93.257 21.3622C93.4224 21.072 93.509 20.7436 93.5082 20.4096C93.5073 20.0756 93.4191 19.7476 93.2523 19.4582L85.1463 5.92222C84.9757 5.64072 84.7355 5.40796 84.4487 5.24642C84.162 5.08487 83.8384 5 83.5093 5C83.1801 5 82.8566 5.08487 82.5698 5.24642C82.2831 5.40796 82.0428 5.64072 81.8723 5.92222V5.92322Z" stroke="#00FFCC" stroke-width="2" stroke-linecap="round" stroke-linejoin="round"/>
<g filter="url(#filter1_f_273_5)">
<path d="M66.5098 22L50.5098 6L66.5098 22ZM66.5098 6L50.5098 22L66.5098 6Z" fill="#00FFCC"/>
<path d="M66.5098 22L50.5098 6M66.5098 6L50.5098 22" stroke="#00FFCC" stroke-width="2" stroke-linecap="round"/>
</g>
<path d="M66.5098 22L50.5098 6L66.5098 22ZM66.5098 6L50.5098 22L66.5098 6Z" fill="#00FFCC"/>
<path d="M66.5098 22L50.5098 6M66.5098 6L50.5098 22" stroke="#00FFCC" stroke-width="2" stroke-linecap="round"/>
<g filter="url(#filter2_f_273_5)">
<path d="M33.5098 24C32.1264 24 30.8264 23.7373 29.6098 23.212C28.3931 22.6867 27.3348 21.9743 26.4348 21.075C25.5348 20.1757 24.8224 19.1173 24.2978 17.9C23.7731 16.6827 23.5104 15.3827 23.5098 14C23.5091 12.6173 23.7718 11.3173 24.2978 10.1C24.8238 8.88267 25.5361 7.82433 26.4348 6.925C27.3334 6.02567 28.3918 5.31333 29.6098 4.788C30.8278 4.26267 32.1278 4 33.5098 4C34.8918 4 36.1918 4.26267 37.4098 4.788C38.6278 5.31333 39.6861 6.02567 40.5848 6.925C41.4834 7.82433 42.1961 8.88267 42.7228 10.1C43.2494 11.3173 43.5118 12.6173 43.5098 14C43.5078 15.3827 43.2451 16.6827 42.7218 17.9C42.1984 19.1173 41.4861 20.1757 40.5848 21.075C39.6834 21.9743 38.6251 22.687 37.4098 23.213C36.1944 23.739 34.8944 24.0013 33.5098 24ZM33.5098 22C35.7431 22 37.6348 21.225 39.1848 19.675C40.7348 18.125 41.5098 16.2333 41.5098 14C41.5098 11.7667 40.7348 9.875 39.1848 8.325C37.6348 6.775 35.7431 6 33.5098 6C31.2764 6 29.3848 6.775 27.8348 8.325C26.2848 9.875 25.5098 11.7667 25.5098 14C25.5098 16.2333 26.2848 18.125 27.8348 19.675C29.3848 21.225 31.2764 22 33.5098 22Z" fill="#00FFCC"/>
</g>
<path d="M33.5098 24C32.1264 24 30.8264 23.7373 29.6098 23.212C28.3931 22.6867 27.3348 21.9743 26.4348 21.075C25.5348 20.1757 24.8224 19.1173 24.2978 17.9C23.7731 16.6827 23.5104 15.3827 23.5098 14C23.5091 12.6173 23.7718 11.3173 24.2978 10.1C24.8238 8.88267 25.5361 7.82433 26.4348 6.925C27.3334 6.02567 28.3918 5.31333 29.6098 4.788C30.8278 4.26267 32.1278 4 33.5098 4C34.8918 4 36.1918 4.26267 37.4098 4.788C38.6278 5.31333 39.6861 6.02567 40.5848 6.925C41.4834 7.82433 42.1961 8.88267 42.7228 10.1C43.2494 11.3173 43.5118 12.6173 43.5098 14C43.5078 15.3827 43.2451 16.6827 42.7218 17.9C42.1984 19.1173 41.4861 20.1757 40.5848 21.075C39.6834 21.9743 38.6251 22.687 37.4098 23.213C36.1944 23.739 34.8944 24.0013 33.5098 24ZM33.5098 22C35.7431 22 37.6348 21.225 39.1848 19.675C40.7348 18.125 41.5098 16.2333 41.5098 14C41.5098 11.7667 40.7348 9.875 39.1848 8.325C37.6348 6.775 35.7431 6 33.5098 6C31.2764 6 29.3848 6.775 27.8348 8.325C26.2848 9.875 25.5098 11.7667 25.5098 14C25.5098 16.2333 26.2848 18.125 27.8348 19.675C29.3848 21.225 31.2764 22 33.5098 22Z" fill="#00FFCC"/>
<g filter="url(#filter3_f_273_5)">
<path d="M4 36.0195C4 35.2969 4.18555 34.6426 4.55664 34.0566C4.93424 33.4642 5.43555 32.9922 6.06055 32.6406C6.68555 32.2891 7.37891 32.1133 8.14062 32.1133H14.7129V34.1641H8.14062C7.56771 34.1641 7.07617 34.3464 6.66602 34.7109C6.26237 35.069 6.06055 35.502 6.06055 36.0098V42.1035C6.06055 42.6113 6.26237 43.0475 6.66602 43.4121C7.07617 43.7702 7.56771 43.9492 8.14062 43.9492H11.3926C11.972 43.9492 12.4635 43.7702 12.8672 43.4121C13.2708 43.0475 13.4727 42.6113 13.4727 42.1035V40.2871H9.70312V38.2363H15.5332V42.0938C15.5332 42.8099 15.3477 43.4642 14.9766 44.0566C14.6055 44.6491 14.1042 45.1211 13.4727 45.4727C12.8477 45.8242 12.1543 46 11.3926 46H8.14062C7.37891 46 6.68555 45.8242 6.06055 45.4727C5.43555 45.1211 4.93424 44.6491 4.55664 44.0566C4.18555 43.4642 4 42.8099 4 42.0938V36.0195ZM22.0762 32.1133H24.6445L29.6152 46H27.418L25.9043 41.8203H22.0273L22.7695 39.7695H25.1621L23.3652 34.8086L19.3027 46H17.1055L22.0762 32.1133ZM31.3828 32.1133H33.2676L37.75 37.5918L42.2324 32.1133H44.1172V46H42.0566V35.6191L38.6094 39.7988H36.9004L33.4434 35.6191V46H31.3828V32.1133ZM46.8516 32.1133H57.623V34.1641H48.9121V43.9395H57.623V46H46.8516V32.1133ZM50.084 37.748H57.623V39.7988H50.084V37.748ZM76.0703 32.1133H83.3848C84.0293 32.1133 84.612 32.2663 85.1328 32.5723C85.6536 32.8783 86.0671 33.2884 86.373 33.8027C86.6855 34.3171 86.8418 34.8932 86.8418 35.5312V36.4395C86.8418 37.3444 86.5814 38.0312 86.0605 38.5C86.5228 38.7995 86.8581 39.1576 87.0664 39.5742C87.2747 39.9844 87.3789 40.4987 87.3789 41.1172V42.6504C87.3789 43.2624 87.2227 43.8223 86.9102 44.3301C86.6042 44.8379 86.1908 45.2448 85.6699 45.5508C85.1491 45.8503 84.5729 46 83.9414 46H76.0703V32.1133ZM83.9609 43.9395C84.3385 43.9395 84.6608 43.8125 84.9277 43.5586C85.1947 43.2982 85.3281 42.9857 85.3281 42.6211V41.0879C85.3281 40.7233 85.1947 40.4108 84.9277 40.1504C84.6608 39.89 84.3353 39.7598 83.9512 39.7598H79.3027V37.709H83.3848C83.7689 37.709 84.0977 37.5853 84.3711 37.3379C84.651 37.084 84.791 36.778 84.791 36.4199V35.5312C84.791 35.1536 84.651 34.8314 84.3711 34.5645C84.0977 34.2975 83.7689 34.1641 83.3848 34.1641H78.1309V43.9395H83.9609ZM93.8145 32.1133H96.3828L101.354 46H99.1562L97.6426 41.8203H93.7656L94.5078 39.7695H96.9004L95.1035 34.8086L91.041 46H88.8438L93.8145 32.1133ZM103.121 32.1133H110.465C111.096 32.1133 111.669 32.2695 112.184 32.582C112.704 32.888 113.118 33.2982 113.424 33.8125C113.736 34.3268 113.893 34.8997 113.893 35.5312V36.918C113.893 37.5495 113.74 38.1191 113.434 38.627C113.134 39.1348 112.724 39.5384 112.203 39.8379C111.682 40.1374 111.1 40.2871 110.455 40.2871L114.596 46H112.086L107.945 40.2871H106.354V38.2363H110.465C110.849 38.2363 111.174 38.1061 111.441 37.8457C111.708 37.5788 111.842 37.2598 111.842 36.8887V35.5312C111.842 35.1536 111.708 34.8314 111.441 34.5645C111.174 34.2975 110.849 34.1641 110.465 34.1641H105.182V46H103.121V32.1133Z" fill="white"/>
<path d="M65.8359 31.0391H67.6816V49.7305H65.8359V31.0391Z" fill="#00FFCC"/>
</g>
<path d="M4 36.0195C4 35.2969 4.18555 34.6426 4.55664 34.0566C4.93424 33.4642 5.43555 32.9922 6.06055 32.6406C6.68555 32.2891 7.37891 32.1133 8.14062 32.1133H14.7129V34.1641H8.14062C7.56771 34.1641 7.07617 34.3464 6.66602 34.7109C6.26237 35.069 6.06055 35.502 6.06055 36.0098V42.1035C6.06055 42.6113 6.26237 43.0475 6.66602 43.4121C7.07617 43.7702 7.56771 43.9492 8.14062 43.9492H11.3926C11.972 43.9492 12.4635 43.7702 12.8672 43.4121C13.2708 43.0475 13.4727 42.6113 13.4727 42.1035V40.2871H9.70312V38.2363H15.5332V42.0938C15.5332 42.8099 15.3477 43.4642 14.9766 44.0566C14.6055 44.6491 14.1042 45.1211 13.4727 45.4727C12.8477 45.8242 12.1543 46 11.3926 46H8.14062C7.37891 46 6.68555 45.8242 6.06055 45.4727C5.43555 45.1211 4.93424 44.6491 4.55664 44.0566C4.18555 43.4642 4 42.8099 4 42.0938V36.0195ZM22.0762 32.1133H24.6445L29.6152 46H27.418L25.9043 41.8203H22.0273L22.7695 39.7695H25.1621L23.3652 34.8086L19.3027 46H17.1055L22.0762 32.1133ZM31.3828 32.1133H33.2676L37.75 37.5918L42.2324 32.1133H44.1172V46H42.0566V35.6191L38.6094 39.7988H36.9004L33.4434 35.6191V46H31.3828V32.1133ZM46.8516 32.1133H57.623V34.1641H48.9121V43.9395H57.623V46H46.8516V32.1133ZM50.084 37.748H57.623V39.7988H50.084V37.748ZM76.0703 32.1133H83.3848C84.0293 32.1133 84.612 32.2663 85.1328 32.5723C85.6536 32.8783 86.0671 33.2884 86.373 33.8027C86.6855 34.3171 86.8418 34.8932 86.8418 35.5312V36.4395C86.8418 37.3444 86.5814 38.0312 86.0605 38.5C86.5228 38.7995 86.8581 39.1576 87.0664 39.5742C87.2747 39.9844 87.3789 40.4987 87.3789 41.1172V42.6504C87.3789 43.2624 87.2227 43.8223 86.9102 44.3301C86.6042 44.8379 86.1908 45.2448 85.6699 45.5508C85.1491 45.8503 84.5729 46 83.9414 46H76.0703V32.1133ZM83.9609 43.9395C84.3385 43.9395 84.6608 43.8125 84.9277 43.5586C85.1947 43.2982 85.3281 42.9857 85.3281 42.6211V41.0879C85.3281 40.7233 85.1947 40.4108 84.9277 40.1504C84.6608 39.89 84.3353 39.7598 83.9512 39.7598H79.3027V37.709H83.3848C83.7689 37.709 84.0977 37.5853 84.3711 37.3379C84.651 37.084 84.791 36.778 84.791 36.4199V35.5312C84.791 35.1536 84.651 34.8314 84.3711 34.5645C84.0977 34.2975 83.7689 34.1641 83.3848 34.1641H78.1309V43.9395H83.9609ZM93.8145 32.1133H96.3828L101.354 46H99.1562L97.6426 41.8203H93.7656L94.5078 39.7695H96.9004L95.1035 34.8086L91.041 46H88.8438L93.8145 32.1133ZM103.121 32.1133H110.465C111.096 32.1133 111.669 32.2695 112.184 32.582C112.704 32.888 113.118 33.2982 113.424 33.8125C113.736 34.3268 113.893 34.8997 113.893 35.5312V36.918C113.893 37.5495 113.74 38.1191 113.434 38.627C113.134 39.1348 112.724 39.5384 112.203 39.8379C111.682 40.1374 111.1 40.2871 110.455 40.2871L114.596 46H112.086L107.945 40.2871H106.354V38.2363H110.465C110.849 38.2363 111.174 38.1061 111.441 37.8457C111.708 37.5788 111.842 37.2598 111.842 36.8887V35.5312C111.842 35.1536 111.708 34.8314 111.441 34.5645C111.174 34.2975 110.849 34.1641 110.465 34.1641H105.182V46H103.121V32.1133Z" fill="white"/>
<path d="M65.8359 31.0391H67.6816V49.7305H65.8359V31.0391Z" fill="#00FFCC"/>
<defs>
<filter id="filter0_f_273_5" x="68.5098" y="0" width="29.9984" height="27.3283" filterUnits="userSpaceOnUse" color-interpolation-filters="sRGB">
<feFlood flood-opacity="0" result="BackgroundImageFix"/>
<feBlend mode="normal" in="SourceGraphic" in2="BackgroundImageFix" result="shape"/>
<feGaussianBlur stdDeviation="2" result="effect1_foregroundBlur_273_5"/>
</filter>
<filter id="filter1_f_273_5" x="45.5098" y="1" width="26" height="26" filterUnits="userSpaceOnUse" color-interpolation-filters="sRGB">
<feFlood flood-opacity="0" result="BackgroundImageFix"/>
<feBlend mode="normal" in="SourceGraphic" in2="BackgroundImageFix" result="shape"/>
<feGaussianBlur stdDeviation="2" result="effect1_foregroundBlur_273_5"/>
</filter>
<filter id="filter2_f_273_5" x="19.5098" y="0" width="28" height="28" filterUnits="userSpaceOnUse" color-interpolation-filters="sRGB">
<feFlood flood-opacity="0" result="BackgroundImageFix"/>
<feBlend mode="normal" in="SourceGraphic" in2="BackgroundImageFix" result="shape"/>
<feGaussianBlur stdDeviation="2" result="effect1_foregroundBlur_273_5"/>
</filter>
<filter id="filter3_f_273_5" x="0" y="27.0391" width="118.596" height="26.6914" filterUnits="userSpaceOnUse" color-interpolation-filters="sRGB">
<feFlood flood-opacity="0" result="BackgroundImageFix"/>
<feBlend mode="normal" in="SourceGraphic" in2="BackgroundImageFix" result="shape"/>
<feGaussianBlur stdDeviation="2" result="effect1_foregroundBlur_273_5"/>
</filter>
</defs>
</svg>
