<svg width="1801" height="1801" viewBox="0 0 1801 1801" fill="none" xmlns="http://www.w3.org/2000/svg">
<rect width="1801" height="1801" rx="900.5" fill="#161616"/>
<g filter="url(#filter0_f_547_26)">
<path d="M140.337 1018.14C140.337 1008.15 142.901 999.109 148.029 991.013C153.247 982.826 160.174 976.303 168.811 971.445C177.447 966.587 187.029 964.158 197.555 964.158H288.375V992.497H197.555C189.638 992.497 182.845 995.016 177.177 1000.05C171.6 1005 168.811 1010.98 168.811 1018V1102.21C168.811 1109.23 171.6 1115.25 177.177 1120.29C182.845 1125.24 189.638 1127.72 197.555 1127.72H242.492C250.499 1127.72 257.292 1125.24 262.87 1120.29C268.447 1115.25 271.236 1109.23 271.236 1102.21V1077.11H219.146V1048.77H299.71V1102.07C299.71 1111.97 297.146 1121.01 292.018 1129.2C286.89 1137.39 279.963 1143.91 271.236 1148.77C262.6 1153.63 253.018 1156.05 242.492 1156.05H197.555C187.029 1156.05 177.447 1153.63 168.811 1148.77C160.174 1143.91 153.247 1137.39 148.029 1129.2C142.901 1121.01 140.337 1111.97 140.337 1102.07V1018.14ZM390.126 964.158H425.617L494.306 1156.05H463.942L443.025 1098.3H389.451L399.707 1069.96H432.769L407.939 1001.4L351.8 1156.05H321.437L390.126 964.158ZM518.731 964.158H544.776L606.718 1039.86L668.659 964.158H694.704V1156.05H666.23V1012.6L618.593 1070.36H594.977L547.205 1012.6V1156.05H518.731V964.158ZM732.489 964.158H881.337V992.497H760.964V1127.58H881.337V1156.05H732.489V964.158ZM777.157 1042.02H881.337V1070.36H777.157V1042.02ZM1136.25 964.158H1237.33C1246.24 964.158 1254.29 966.272 1261.49 970.5C1268.68 974.729 1274.4 980.397 1278.62 987.504C1282.94 994.611 1285.1 1002.57 1285.1 1011.39V1023.94C1285.1 1036.45 1281.5 1045.94 1274.31 1052.41C1280.69 1056.55 1285.33 1061.5 1288.21 1067.26C1291.09 1072.93 1292.52 1080.03 1292.52 1088.58V1109.77C1292.52 1118.22 1290.37 1125.96 1286.05 1132.98C1281.82 1140 1276.11 1145.62 1268.91 1149.85C1261.71 1153.99 1253.75 1156.05 1245.02 1156.05H1136.25V964.158ZM1245.29 1127.58C1250.51 1127.58 1254.96 1125.83 1258.65 1122.32C1262.34 1118.72 1264.19 1114.4 1264.19 1109.36V1088.18C1264.19 1083.14 1262.34 1078.82 1258.65 1075.22C1254.96 1071.62 1250.47 1069.82 1245.16 1069.82H1180.92V1041.48H1237.33C1242.64 1041.48 1247.18 1039.77 1250.96 1036.36C1254.83 1032.85 1256.76 1028.62 1256.76 1023.67V1011.39C1256.76 1006.17 1254.83 1001.72 1250.96 998.03C1247.18 994.341 1242.64 992.497 1237.33 992.497H1164.73V1127.58H1245.29ZM1381.46 964.158H1416.95L1485.64 1156.05H1455.27L1434.36 1098.3H1380.78L1391.04 1069.96H1424.1L1399.27 1001.4L1343.13 1156.05H1312.77L1381.46 964.158ZM1510.06 964.158H1611.54C1620.27 964.158 1628.19 966.317 1635.29 970.635C1642.49 974.864 1648.2 980.532 1652.43 987.639C1656.75 994.746 1658.91 1002.66 1658.91 1011.39V1030.55C1658.91 1039.28 1656.79 1047.15 1652.57 1054.17C1648.43 1061.19 1642.76 1066.76 1635.56 1070.9C1628.37 1075.04 1620.31 1077.11 1611.41 1077.11L1668.63 1156.05H1633.94L1576.73 1077.11H1554.73V1048.77H1611.54C1616.85 1048.77 1621.35 1046.97 1625.04 1043.37C1628.73 1039.68 1630.57 1035.28 1630.57 1030.15V1011.39C1630.57 1006.17 1628.73 1001.72 1625.04 998.03C1621.35 994.341 1616.85 992.497 1611.54 992.497H1538.54V1156.05H1510.06V964.158Z" fill="white"/>
<path d="M994.829 949.314H1020.33V1207.6H994.829V949.314Z" fill="#00FFCC"/>
</g>
<path d="M140.337 1018.14C140.337 1008.15 142.901 999.109 148.029 991.013C153.247 982.826 160.174 976.303 168.811 971.445C177.447 966.587 187.029 964.158 197.555 964.158H288.375V992.497H197.555C189.638 992.497 182.845 995.016 177.177 1000.05C171.6 1005 168.811 1010.98 168.811 1018V1102.21C168.811 1109.23 171.6 1115.25 177.177 1120.29C182.845 1125.24 189.638 1127.72 197.555 1127.72H242.492C250.499 1127.72 257.292 1125.24 262.87 1120.29C268.447 1115.25 271.236 1109.23 271.236 1102.21V1077.11H219.146V1048.77H299.71V1102.07C299.71 1111.97 297.146 1121.01 292.018 1129.2C286.89 1137.39 279.963 1143.91 271.236 1148.77C262.6 1153.63 253.018 1156.05 242.492 1156.05H197.555C187.029 1156.05 177.447 1153.63 168.811 1148.77C160.174 1143.91 153.247 1137.39 148.029 1129.2C142.901 1121.01 140.337 1111.97 140.337 1102.07V1018.14ZM390.126 964.158H425.617L494.306 1156.05H463.942L443.025 1098.3H389.451L399.707 1069.96H432.769L407.939 1001.4L351.8 1156.05H321.437L390.126 964.158ZM518.731 964.158H544.776L606.718 1039.86L668.659 964.158H694.704V1156.05H666.23V1012.6L618.593 1070.36H594.977L547.205 1012.6V1156.05H518.731V964.158ZM732.489 964.158H881.337V992.497H760.964V1127.58H881.337V1156.05H732.489V964.158ZM777.157 1042.02H881.337V1070.36H777.157V1042.02ZM1136.25 964.158H1237.33C1246.24 964.158 1254.29 966.272 1261.49 970.5C1268.68 974.729 1274.4 980.397 1278.62 987.504C1282.94 994.611 1285.1 1002.57 1285.1 1011.39V1023.94C1285.1 1036.45 1281.5 1045.94 1274.31 1052.41C1280.69 1056.55 1285.33 1061.5 1288.21 1067.26C1291.09 1072.93 1292.52 1080.03 1292.52 1088.58V1109.77C1292.52 1118.22 1290.37 1125.96 1286.05 1132.98C1281.82 1140 1276.11 1145.62 1268.91 1149.85C1261.71 1153.99 1253.75 1156.05 1245.02 1156.05H1136.25V964.158ZM1245.29 1127.58C1250.51 1127.58 1254.96 1125.83 1258.65 1122.32C1262.34 1118.72 1264.19 1114.4 1264.19 1109.36V1088.18C1264.19 1083.14 1262.34 1078.82 1258.65 1075.22C1254.96 1071.62 1250.47 1069.82 1245.16 1069.82H1180.92V1041.48H1237.33C1242.64 1041.48 1247.18 1039.77 1250.96 1036.36C1254.83 1032.85 1256.76 1028.62 1256.76 1023.67V1011.39C1256.76 1006.17 1254.83 1001.72 1250.96 998.03C1247.18 994.341 1242.64 992.497 1237.33 992.497H1164.73V1127.58H1245.29ZM1381.46 964.158H1416.95L1485.64 1156.05H1455.27L1434.36 1098.3H1380.78L1391.04 1069.96H1424.1L1399.27 1001.4L1343.13 1156.05H1312.77L1381.46 964.158ZM1510.06 964.158H1611.54C1620.27 964.158 1628.19 966.317 1635.29 970.635C1642.49 974.864 1648.2 980.532 1652.43 987.639C1656.75 994.746 1658.91 1002.66 1658.91 1011.39V1030.55C1658.91 1039.28 1656.79 1047.15 1652.57 1054.17C1648.43 1061.19 1642.76 1066.76 1635.56 1070.9C1628.37 1075.04 1620.31 1077.11 1611.41 1077.11L1668.63 1156.05H1633.94L1576.73 1077.11H1554.73V1048.77H1611.54C1616.85 1048.77 1621.35 1046.97 1625.04 1043.37C1628.73 1039.68 1630.57 1035.28 1630.57 1030.15V1011.39C1630.57 1006.17 1628.73 1001.72 1625.04 998.03C1621.35 994.341 1616.85 992.497 1611.54 992.497H1538.54V1156.05H1510.06V964.158Z" fill="white"/>
<path d="M994.829 949.314H1020.33V1207.6H994.829V949.314Z" fill="#00FFCC"/>
<g filter="url(#filter1_f_547_26)">
<path d="M1224.21 598.576L1112.2 785.599C1109.89 789.598 1108.67 794.131 1108.65 798.749C1108.64 803.367 1109.84 807.908 1112.12 811.92C1114.41 815.932 1117.7 819.275 1121.68 821.618C1125.66 823.96 1130.19 825.22 1134.8 825.272H1358.86C1363.48 825.219 1368 823.959 1371.97 821.617C1375.95 819.275 1379.25 815.933 1381.53 811.923C1383.82 807.913 1385.02 803.375 1385 798.759C1384.99 794.143 1383.77 789.611 1381.47 785.613L1269.45 598.563C1267.1 594.673 1263.78 591.456 1259.81 589.224C1255.85 586.992 1251.38 585.819 1246.83 585.819C1242.28 585.819 1237.81 586.992 1233.85 589.224C1229.89 591.456 1226.57 594.673 1224.21 598.563V598.576Z" stroke="#00FFCC" stroke-width="27.6374" stroke-linecap="round" stroke-linejoin="round"/>
</g>
<path d="M1224.21 598.576L1112.19 785.599C1109.89 789.598 1108.66 794.131 1108.65 798.749C1108.64 803.367 1109.83 807.908 1112.12 811.92C1114.41 815.932 1117.7 819.275 1121.68 821.618C1125.66 823.96 1130.18 825.22 1134.8 825.272H1358.86C1363.47 825.219 1367.99 823.959 1371.97 821.617C1375.95 819.275 1379.25 815.933 1381.53 811.923C1383.82 807.913 1385.01 803.375 1385 798.759C1384.99 794.143 1383.77 789.611 1381.47 785.613L1269.45 598.563C1267.09 594.673 1263.77 591.456 1259.81 589.224C1255.85 586.992 1251.38 585.819 1246.83 585.819C1242.28 585.819 1237.81 586.992 1233.85 589.224C1229.89 591.456 1226.57 594.673 1224.21 598.563V598.576Z" stroke="#00FFCC" stroke-width="27.6374" stroke-linecap="round" stroke-linejoin="round"/>
<g filter="url(#filter2_f_547_26)">
<path d="M1011.92 820.737L790.822 599.637ZM1011.92 599.637L790.822 820.737Z" fill="#00FFCC"/>
<path d="M1011.92 820.737L790.822 599.637M1011.92 599.637L790.822 820.737" stroke="#00FFCC" stroke-width="27.6374" stroke-linecap="round"/>
</g>
<path d="M1011.92 820.737L790.822 599.637ZM1011.92 599.637L790.822 820.737Z" fill="#00FFCC"/>
<path d="M1011.92 820.737L790.822 599.637M1011.92 599.637L790.822 820.737" stroke="#00FFCC" stroke-width="27.6374" stroke-linecap="round"/>
<g filter="url(#filter3_f_547_26)">
<path d="M555.904 848.374C536.788 848.374 518.824 844.744 502.011 837.485C485.198 830.225 470.574 820.382 458.137 807.954C445.7 795.527 435.856 780.902 428.606 764.08C421.356 747.258 417.726 729.294 417.717 710.187C417.708 691.08 421.338 673.116 428.606 656.294C435.875 639.472 445.718 624.847 458.137 612.42C470.555 599.992 485.18 590.149 502.011 582.889C518.842 575.63 536.807 572 555.904 572C575.001 572 592.966 575.63 609.797 582.889C626.628 590.149 641.253 599.992 653.671 612.42C666.09 624.847 675.938 639.472 683.216 656.294C690.494 673.116 694.119 691.08 694.091 710.187C694.063 729.294 690.434 747.258 683.202 764.08C675.97 780.902 666.127 795.527 653.671 807.954C641.216 820.382 626.591 830.23 609.797 837.499C593.003 844.767 575.038 848.392 555.904 848.374ZM555.904 820.737C586.766 820.737 612.906 810.027 634.325 788.608C655.744 767.189 666.454 741.049 666.454 710.187C666.454 679.325 655.744 653.185 634.325 631.766C612.906 610.347 586.766 599.637 555.904 599.637C525.042 599.637 498.902 610.347 477.483 631.766C456.064 653.185 445.354 679.325 445.354 710.187C445.354 741.049 456.064 767.189 477.483 788.608C498.902 810.027 525.042 820.737 555.904 820.737Z" fill="#00FFCC"/>
</g>
<path d="M555.905 848.374C536.789 848.374 518.825 844.744 502.012 837.485C485.2 830.225 470.575 820.382 458.138 807.954C445.701 795.527 435.858 780.902 428.607 764.08C421.357 747.258 417.727 729.294 417.718 710.187C417.709 691.08 421.339 673.116 428.607 656.294C435.876 639.472 445.72 624.847 458.138 612.42C470.556 599.992 485.181 590.149 502.012 582.889C518.844 575.63 536.808 572 555.905 572C575.003 572 592.967 575.63 609.798 582.889C626.629 590.149 641.254 599.992 653.673 612.42C666.091 624.847 675.939 639.472 683.217 656.294C690.495 673.116 694.12 691.08 694.092 710.187C694.065 729.294 690.435 747.258 683.203 764.08C675.971 780.902 666.128 795.527 653.673 807.954C641.217 820.382 626.592 830.23 609.798 837.499C593.004 844.767 575.04 848.392 555.905 848.374ZM555.905 820.737C586.767 820.737 612.907 810.027 634.326 788.608C655.745 767.189 666.455 741.049 666.455 710.187C666.455 679.325 655.745 653.185 634.326 631.766C612.907 610.347 586.767 599.637 555.905 599.637C525.043 599.637 498.903 610.347 477.484 631.766C456.065 653.185 445.356 679.325 445.356 710.187C445.356 741.049 456.065 767.189 477.484 788.608C498.903 810.027 525.043 820.737 555.905 820.737Z" fill="#00FFCC"/>
<defs>
<filter id="filter0_f_547_26" x="88.8762" y="897.853" width="1631.21" height="361.212" filterUnits="userSpaceOnUse" color-interpolation-filters="sRGB">
<feFlood flood-opacity="0" result="BackgroundImageFix"/>
<feBlend mode="normal" in="SourceGraphic" in2="BackgroundImageFix" result="shape"/>
<feGaussianBlur stdDeviation="25.7302" result="effect1_foregroundBlur_547_26"/>
</filter>
<filter id="filter1_f_547_26" x="1043.37" y="520.54" width="406.91" height="370.012" filterUnits="userSpaceOnUse" color-interpolation-filters="sRGB">
<feFlood flood-opacity="0" result="BackgroundImageFix"/>
<feBlend mode="normal" in="SourceGraphic" in2="BackgroundImageFix" result="shape"/>
<feGaussianBlur stdDeviation="25.7302" result="effect1_foregroundBlur_547_26"/>
</filter>
<filter id="filter2_f_547_26" x="725.543" y="534.358" width="351.657" height="351.657" filterUnits="userSpaceOnUse" color-interpolation-filters="sRGB">
<feFlood flood-opacity="0" result="BackgroundImageFix"/>
<feBlend mode="normal" in="SourceGraphic" in2="BackgroundImageFix" result="shape"/>
<feGaussianBlur stdDeviation="25.7302" result="effect1_foregroundBlur_547_26"/>
</filter>
<filter id="filter3_f_547_26" x="366.257" y="520.54" width="379.295" height="379.295" filterUnits="userSpaceOnUse" color-interpolation-filters="sRGB">
<feFlood flood-opacity="0" result="BackgroundImageFix"/>
<feBlend mode="normal" in="SourceGraphic" in2="BackgroundImageFix" result="shape"/>
<feGaussianBlur stdDeviation="25.7302" result="effect1_foregroundBlur_547_26"/>
</filter>
</defs>
</svg>
